<svg xmlns="http://www.w3.org/2000/svg" width="918.582" height="173.307" viewBox="0 0 918.582 173.307"><g transform="translate(4102.633 18523.915)"><g transform="translate(431.683 468.932)"><g transform="translate(996.643 712.832)"><path d="M8.248,0H25.8V-29.208H41.424a29.512,29.512,0,0,0,21.549-8.651,28.6,28.6,0,0,0,8.775-21.177,28.7,28.7,0,0,0-8.775-21.208,29.457,29.457,0,0,0-21.549-8.682H8.248ZM26.076-46.062a1.749,1.749,0,0,1-.279-1.055V-71.3a1.383,1.383,0,0,1,.306-.941,1.665,1.665,0,0,1,1.023-.25h14.3a12.334,12.334,0,0,1,9.3,3.814,13.367,13.367,0,0,1,3.659,9.643,13.332,13.332,0,0,1-3.69,9.612,12.311,12.311,0,0,1-9.271,3.845H27.076a1.846,1.846,0,0,1-1-.485ZM82.414,0H98.785V-92.708H82.414Zm28.029-31.75q0,14.077,9.054,23.813T141.263,1.8q13.208,0,20.712-9.3V0h16.371V-63.5H161.975V-56q-7.5-9.3-20.712-9.3-12.712,0-21.766,9.736T110.443-31.75Zm16.371,0q0-7.937,4.93-12.929A16.9,16.9,0,0,1,144.3-49.671a17.181,17.181,0,0,1,12.681,4.992,17.494,17.494,0,0,1,4.992,12.929,17.494,17.494,0,0,1-4.992,12.929A17.181,17.181,0,0,1,144.3-13.829a16.9,16.9,0,0,1-12.557-4.992Q126.814-23.813,126.814-31.75ZM186.1-63.5,212.142-2.046Q209.848,4.465,206,7.317q-3.783,2.853-10.232,2.853h-.248V25.425q1.178.062,2.356.062,10.6,0,17.983-5.643,8.251-6.2,13.15-19.844l23.13-63.5H234.59L220.514-20.836,204.019-63.5ZM259.891,0h16.371V-92.708H259.891Zm31.316,0h16.371V-63.5H291.207Zm26.479-13.333A24.657,24.657,0,0,0,327.98-2.077,32.627,32.627,0,0,0,344.351,1.8,35.256,35.256,0,0,0,357.032-.37,20.735,20.735,0,0,0,366.3-7.255a18.061,18.061,0,0,0,3.6-11.286,19.048,19.048,0,0,0-1.4-7.5,13.942,13.942,0,0,0-3.721-5.271,28.6,28.6,0,0,0-5.271-3.535,29.866,29.866,0,0,0-5.984-2.387q-3.039-.837-5.984-1.705t-5.271-1.612a10.217,10.217,0,0,1-3.721-1.984,3.788,3.788,0,0,1-1.4-2.915A4.361,4.361,0,0,1,339.2-49.3a9.327,9.327,0,0,1,5.271-1.364,10.448,10.448,0,0,1,10.17,6.449L368.6-51.842a25.211,25.211,0,0,0-9.984-9.984A28.886,28.886,0,0,0,344.475-65.3q-10.232,0-17.177,5.426t-6.945,14.79a16.963,16.963,0,0,0,1.8,7.969,14.842,14.842,0,0,0,4.713,5.457,33.69,33.69,0,0,0,6.387,3.442,56.544,56.544,0,0,0,6.976,2.356q3.5.93,6.418,1.86a16.149,16.149,0,0,1,4.713,2.263,3.9,3.9,0,0,1,1.8,3.194,4.444,4.444,0,0,1-2.387,4.062,12.689,12.689,0,0,1-6.418,1.4,13.743,13.743,0,0,1-7.875-2.139,11.714,11.714,0,0,1-4.527-6.108ZM373.062-47.75H384.1v26.417q0,8.806,2.884,13.767t9.643,6.883A36.945,36.945,0,0,0,406.611.5a76.259,76.259,0,0,0,8.248-.5V-14.883q-2.915.186-5.209.186-1.426,0-2.667-.062a6.969,6.969,0,0,1-4.837-1.736,6.3,6.3,0,0,1-1.674-4.837V-47.749h14.387V-63.5H400.472V-81.3L384.1-76.336V-63.5H373.063ZM453.926-77.7H480.1V0h11.658V-77.7h26.293V-88.925h-64.12Zm59.531,45.95a33.287,33.287,0,0,0,4.434,16.929A32.269,32.269,0,0,0,530.014-2.729a33.234,33.234,0,0,0,16.8,4.4,33.4,33.4,0,0,0,16.836-4.4,32.661,32.661,0,0,0,12.216-12.092,32.932,32.932,0,0,0,4.5-16.929,32.931,32.931,0,0,0-4.5-16.929,32.661,32.661,0,0,0-12.216-12.092,33.4,33.4,0,0,0-16.836-4.4,33.234,33.234,0,0,0-16.8,4.4,32.268,32.268,0,0,0-12.123,12.092,33.288,33.288,0,0,0-4.434,16.929Zm11.038,0a22.007,22.007,0,0,1,6.449-16.123,21.47,21.47,0,0,1,15.875-6.511,21.72,21.72,0,0,1,16.03,6.511,21.952,21.952,0,0,1,6.48,16.123,21.952,21.952,0,0,1-6.48,16.123,21.72,21.72,0,0,1-16.03,6.511,21.47,21.47,0,0,1-15.875-6.511A22.007,22.007,0,0,1,524.5-31.75Zm65.36,0a33.288,33.288,0,0,0,4.434,16.929A32.269,32.269,0,0,0,606.413-2.729a33.234,33.234,0,0,0,16.8,4.4,33.4,33.4,0,0,0,16.836-4.4A32.661,32.661,0,0,0,652.27-14.821a32.932,32.932,0,0,0,4.5-16.929,32.931,32.931,0,0,0-4.5-16.929,32.66,32.66,0,0,0-12.216-12.092,33.4,33.4,0,0,0-16.836-4.4,33.234,33.234,0,0,0-16.805,4.4A32.268,32.268,0,0,0,594.29-48.679a33.288,33.288,0,0,0-4.435,16.929Zm11.038,0a22.007,22.007,0,0,1,6.449-16.123,21.47,21.47,0,0,1,15.875-6.511,21.72,21.72,0,0,1,16.03,6.511,21.952,21.952,0,0,1,6.48,16.123,21.952,21.952,0,0,1-6.48,16.123,21.72,21.72,0,0,1-16.03,6.511,21.47,21.47,0,0,1-15.875-6.511,22.007,22.007,0,0,1-6.448-16.123ZM669.789,0h11.038V-92.708H669.789Zm23.875-13.208A23.063,23.063,0,0,0,703.09-2.387,29.5,29.5,0,0,0,718.9,1.674q10.356,0,17.053-5.209a16.71,16.71,0,0,0,6.7-13.891,17.12,17.12,0,0,0-1.519-7.379,13.406,13.406,0,0,0-4.031-5.116,31.717,31.717,0,0,0-5.7-3.379,34.9,34.9,0,0,0-6.511-2.294q-3.318-.806-6.511-1.829t-5.705-2.015a10.077,10.077,0,0,1-4.031-2.76,6.213,6.213,0,0,1-1.519-4.186,7.128,7.128,0,0,1,3.318-6.263,13.937,13.937,0,0,1,7.969-2.232,16.73,16.73,0,0,1,8.155,2.015,12.1,12.1,0,0,1,5.426,6.108l9.3-5.209a22.816,22.816,0,0,0-9.116-9.7,26.844,26.844,0,0,0-13.767-3.5q-9.674,0-16.061,5.333A16.982,16.982,0,0,0,695.958-46.2a16.56,16.56,0,0,0,1.519,7.255,13.239,13.239,0,0,0,4.031,5.023,32.9,32.9,0,0,0,5.705,3.349,34.9,34.9,0,0,0,6.511,2.294q3.318.806,6.511,1.829t5.705,2.05a10.345,10.345,0,0,1,4.031,2.791,6.213,6.213,0,0,1,1.519,4.186,7.126,7.126,0,0,1-3.535,6.542A17.265,17.265,0,0,1,718.9-8.744a18.247,18.247,0,0,1-10.015-2.667,13.528,13.528,0,0,1-5.736-7.255Z" transform="translate(-5355.038 -19559.973)" fill="#140c22"/><path d="M289.285-81.173a9.658,9.658,0,0,0,2.977,7.069,9.658,9.658,0,0,0,7.069,2.977,9.831,9.831,0,0,0,7.162-2.977,9.609,9.609,0,0,0,3.008-7.069,9.812,9.812,0,0,0-3.008-7.131,9.731,9.731,0,0,0-7.162-3.039,9.562,9.562,0,0,0-7.069,3.039A9.863,9.863,0,0,0,289.285-81.173Z" transform="translate(-5355.038 -19559.973)" fill="#762cf8"/></g><g transform="translate(0 0.152)"><path d="M0,0H25.5A8.5,8.5,0,0,1,34,8.5h0A8.5,8.5,0,0,1,25.5,17H0Z" transform="matrix(0.985, 0.174, -0.174, 0.985, -4444.266, -18993)" fill="#762cf8"/><g transform="translate(1973.643 1990)"><g transform="translate(-6490.795 -20940.961)" fill="none" stroke="#140c22" stroke-width="17"><circle cx="57.5" cy="57.5" r="57.5" stroke="none"/><circle cx="57.5" cy="57.5" r="49" fill="none"/></g><ellipse cx="23.5" cy="18.212" rx="23.5" ry="18.212" transform="translate(-6457 -20901.674)" fill="#762cf8"/><path d="M0,1.059S-.452-3.793,19.618-3.793,39,1.059,39,1.059V17H0Z" transform="translate(-6453 -20954)" fill="#140c22"/><path d="M0,12.148S-.452,17,19.618,17,39,12.148,39,12.148V-3.793H0Z" transform="translate(-6453 -20826.693)" fill="#140c22"/><rect width="108" height="17" rx="8.5" transform="translate(-6410 -20983) rotate(90)" fill="#762cf8"/><path d="M0,1.059S-.452-3.793,19.618-3.793,39,1.059,39,1.059V17H0Z" transform="translate(-6381.827 -20936.104) rotate(60)" fill="#140c22"/><path d="M0,15.941s-.452,4.852,19.617,4.852S39,15.942,39,15.942V0H0Z" transform="translate(-6470.45 -20927.604) rotate(120)" fill="#140c22"/><path d="M0,15.942s-.452,4.852,19.617,4.852S39,15.942,39,15.942V0H0Z" transform="translate(-6396.346 -20840.223) rotate(-60)" fill="#140c22"/><path d="M0,4.852S-.451,0,19.618,0,39,4.851,39,4.851V20.793H0Z" transform="translate(-6488.253 -20829.828) rotate(-120)" fill="#140c22"/></g></g></g></g></svg>